# xmcd
#
# Track frame offsets:
#	182
#	15827
#	28532
#	44147
#	57857
#	72590
#	83115
#	100390
#	116780
#	128342
#	141472
#	155907
#	176125
#	193597
#	214275
#	232540
#	248255
#	261247
#
# Disc length: 3668 seconds
#
# Revision: 0
# Processed by: cddbd v1.5.1PL2 Copyright (c) Steve Scherf et al.
# Submitted via: EasyCDDAExtractor 10.0.1.1
#
DISCID=fc0e5212
DTITLE=Marc Aryan - 18 Chansons D'or
DYEAR=1900
DGENRE=Oldies
TTITLE0=Le Disque Des Auditeurs
TTITLE1=Petit' Madame
TTITLE2=Tu Es Bien Trop Belle
TTITLE3=Gion, Un Seul Whisky
TTITLE4=Mamy
TTITLE5=Toi Et Moi
TTITLE6=Car Tu L'aimes
TTITLE7=La Mélodie Du Hippie
TTITLE8=Deux Ombres Dans La Nuit
TTITLE9=Pour Moi Tu Es Tout
TTITLE10=Quand On Est Amoureux
TTITLE11=Tu Es Toute Ma Vie
TTITLE12=Sans Amour
TTITLE13=Amène Ta Semaine
TTITLE14=La Fée Verte
TTITLE15=Bien Trop Jolie Pour Être Libre
TTITLE16=Le Coeur En Chômage
TTITLE17=Grosses Lunettes Sur Un Petit Bout De Nez
EXTD=
EXTT0=
EXTT1=
EXTT2=
EXTT3=
EXTT4=
EXTT5=
EXTT6=
EXTT7=
EXTT8=
EXTT9=
EXTT10=
EXTT11=
EXTT12=
EXTT13=
EXTT14=
EXTT15=
EXTT16=
EXTT17=
PLAYORDER=
